<?xml version="1.0" encoding="iso-8859-1"?>
<!-- Generator: Adobe Illustrator 19.0.0, SVG Export Plug-In . SVG Version: 6.00 Build 0)  -->
<svg version="1.1" id="Layer_1" xmlns="http://www.w3.org/2000/svg" xmlns:xlink="http://www.w3.org/1999/xlink" x="0px" y="0px"
	 viewBox="0 0 512.004 512.004" style="enable-background:new 0 0 512.004 512.004;" xml:space="preserve">
<g>
	<g>
		<g>
			<path d="M471.885,314.53c2.773-11.511,4.608-23.39,5.427-35.541c9.088,2.611,12.16,2.21,19.465,7.91
				c2.142,1.673,4.181,3.234,6.699,3.234c1.86,0,3.721-0.597,5.291-1.843c3.695-2.927,4.318-8.286,1.399-11.989
				c-10.095-12.74-18.227-11.17-32.384-14.967c-0.077-4.855-0.324-9.796-0.742-14.78c6.605-13.636,10.598-29.542,13.321-47.497
				c0.026-0.137,2.534-14.148,13.321-14.413c4.634-0.12,8.32-3.9,8.32-8.533v-28.698c0-3.319-1.928-6.349-4.949-7.748
				c-1.775-0.819-22.75-10.223-58.505-15.317l29.005-78.729c1.152-3.132,0.384-6.639-1.971-8.986
				c-2.364-2.355-5.88-3.115-8.986-1.971L360.081,73.907c-29.346-14.737-61.986-22.707-95.556-22.707
				c-33.553,0-66.202,7.97-95.556,22.707L62.456,34.662c-3.132-1.143-6.639-0.384-8.986,1.971c-2.355,2.347-3.123,5.854-1.971,8.986
				l28.314,76.851c-45.67,4.096-72.832,16.265-74.854,17.195C1.937,141.064,0,144.093,0,147.413v28.698
				c0,4.634,3.695,8.414,8.329,8.533c10.598,0.265,13.218,13.884,13.295,14.268c3.934,25.89,10.496,47.522,23.723,64.154
				c-12.663,4.079-26.274,10.778-34.978,21.768c-2.927,3.703-2.304,9.062,1.391,11.989c1.57,1.246,3.439,1.843,5.299,1.843
				c2.509,0,5.009-1.109,6.69-3.234c5.393-6.81,15.189-12.484,28.006-16.452c0.819,12.169,2.688,24.047,5.487,35.575
				c-19.755,6.391-36.599,16.777-46.925,30.08c-2.884,3.721-2.21,9.079,1.51,11.972c1.553,1.212,3.396,1.792,5.231,1.792
				c2.543,0,5.06-1.135,6.741-3.302c7.134-9.182,20.463-18.33,38.076-24.201c28.058,85.171,108.476,146.97,202.65,146.97
				c94.455,0,174.72-61.73,202.701-146.944c17.587,5.862,22.383,6.468,29.5,15.642c1.69,2.167,4.207,3.302,6.75,3.302
				c1.826,0,3.678-0.58,5.231-1.792c3.721-2.893,4.395-8.252,1.502-11.972C499.874,322.79,491.631,320.921,471.885,314.53z
				 M455.142,57.062l-24.055,65.314c-2.679-0.23-5.41-0.435-8.209-0.606c-3.029-3.354-6.144-6.588-9.353-9.728
				c-0.333-0.324-0.666-0.649-0.998-0.964c-3.029-2.927-6.127-5.76-9.31-8.482c-0.367-0.324-0.725-0.657-1.101-0.973
				c-3.447-2.91-6.963-5.734-10.581-8.414c-0.657-0.495-1.357-0.947-2.022-1.425c-2.748-1.988-5.521-3.925-8.346-5.777
				c-0.538-0.35-1.05-0.751-1.596-1.101L455.142,57.062z M163.396,96.571c30.259-18.236,65.101-28.305,101.129-28.305
				c35.43,0,69.675,9.754,99.567,27.401c2.022,1.195,4.096,2.295,6.067,3.558c2.842,1.818,5.547,3.849,8.286,5.811
				c2.304,1.647,4.659,3.208,6.886,4.958c1.903,1.485,3.678,3.14,5.521,4.693c2.5,2.125,5.018,4.224,7.424,6.468
				c-21.615,0.23-45.978,2.483-72.678,7.996c-0.64,0.137-1.28,0.282-1.92,0.418c-3.797,0.802-7.637,1.673-11.52,2.611
				c-1.289,0.307-2.569,0.623-3.849,0.947c-3.388,0.845-6.81,1.758-10.257,2.722c-1.297,0.358-2.594,0.7-3.891,1.075
				c-4.574,1.314-9.19,2.705-13.875,4.224c-15.778,5.103-32.794,5.103-48.555,0c-8.695-2.816-17.195-5.265-25.506-7.407
				c-0.085-0.026-0.179-0.043-0.273-0.068c-27.614-7.1-53.035-10.701-75.819-11.989c2.662-2.517,5.495-4.838,8.286-7.194
				c1.724-1.451,3.362-3.012,5.129-4.403c1.911-1.502,3.959-2.825,5.931-4.258c3.055-2.21,6.067-4.48,9.233-6.511
				C160.23,98.338,161.852,97.51,163.396,96.571z M73.907,57.062l75.571,27.853c-0.478,0.307-0.93,0.666-1.408,0.973
				c-2.901,1.894-5.751,3.874-8.559,5.905c-0.589,0.427-1.195,0.819-1.775,1.246c-3.558,2.628-7.023,5.402-10.419,8.26
				c-0.452,0.384-0.896,0.785-1.348,1.178c-3.063,2.62-6.05,5.333-8.969,8.132c-0.358,0.341-0.717,0.691-1.075,1.041
				c-3.157,3.072-6.221,6.238-9.199,9.506c-3.106,0.034-6.153,0.102-9.131,0.205L73.907,57.062z M62.234,202.299
				c-3.328-3.337-3.328-8.73,0-12.066l25.6-25.6c3.337-3.337,8.738-3.337,12.066,0c3.337,3.336,3.337,8.73,0,12.066l-25.6,25.6
				c-1.664,1.664-3.849,2.5-6.033,2.5C66.091,204.799,63.906,203.963,62.234,202.299z M455.398,310.178
				c-9.062-1.741-18.517-2.679-28.117-2.679h-0.657c-4.71,0.017-8.516,3.857-8.499,8.568c0.026,4.702,3.84,8.499,8.533,8.499
				c0.179-0.043,0.427,0,0.64,0c8.286,0,16.051,0.853,23.39,2.185c-26.078,77.815-99.678,134.05-186.163,134.05
				c-86.204,0-159.718-56.354-185.882-134.093c7.253-1.306,14.925-2.142,23.108-2.142c0.213,0,0.393,0.026,0.64,0
				c4.693,0,8.508-3.797,8.533-8.499c0.017-4.71-3.789-8.55-8.499-8.568c-9.719-0.034-19.311,0.905-28.535,2.679
				c-2.108-8.772-3.823-17.69-4.702-26.863c0.06,0.034,0.137,0.06,0.196,0.094c3.302,1.852,6.827,3.567,10.598,5.137
				c1.323,0.563,2.773,1.041,4.156,1.553c2.441,0.913,4.941,1.792,7.578,2.586c1.792,0.546,3.635,1.058,5.513,1.544
				c2.697,0.708,5.521,1.331,8.405,1.929c1.741,0.358,3.439,0.742,5.239,1.058c4.804,0.845,9.796,1.579,15.13,2.142
				c72.533,7.723,108.015-46.029,113.34-81.655c3.14-21.052,14.899-21.299,16.102-21.436c0.375,0.017,0.742,0.017,1.118,0
				c0.06-0.009,12.809-0.631,16.102,21.436c0.324,2.15,0.768,4.378,1.314,6.656c0.171,0.725,0.418,1.485,0.623,2.219
				c0.418,1.57,0.836,3.123,1.357,4.727c0.299,0.896,0.666,1.818,0.998,2.722c0.529,1.468,1.05,2.918,1.664,4.395
				c0.418,0.998,0.896,1.997,1.357,2.995c0.64,1.399,1.271,2.799,1.988,4.207c0.538,1.041,1.135,2.074,1.707,3.115
				c0.759,1.357,1.519,2.705,2.347,4.053c0.657,1.067,1.357,2.116,2.065,3.166c0.862,1.297,1.741,2.586,2.679,3.857
				c0.785,1.067,1.613,2.116,2.449,3.166c0.964,1.22,1.963,2.423,3.004,3.618c0.922,1.05,1.869,2.082,2.85,3.106
				c1.075,1.135,2.176,2.236,3.319,3.328c1.067,1.015,2.142,2.005,3.26,2.987c1.169,1.024,2.389,2.014,3.627,2.987
				c1.212,0.964,2.423,1.911,3.695,2.816c1.271,0.913,2.594,1.766,3.925,2.62c1.357,0.879,2.714,1.749,4.139,2.569
				c1.365,0.785,2.807,1.493,4.232,2.219c1.51,0.768,3.004,1.545,4.574,2.244c1.476,0.648,3.021,1.203,4.557,1.792
				c1.655,0.631,3.285,1.297,5.018,1.852c1.596,0.512,3.285,0.896,4.932,1.34c1.792,0.469,3.533,0.998,5.393,1.382
				c1.843,0.384,3.806,0.606,5.726,0.896c2.005,0.299,3.968,0.64,6.05,0.836c3.499,0.324,7.091,0.521,10.812,0.521
				c0.043,0,0.094-0.009,0.145-0.009c4.361-0.009,8.866-0.23,13.534-0.725h0.009c4.531-0.478,8.858-1.075,13.039-1.758
				c1.024-0.162,1.954-0.384,2.953-0.563c3.115-0.555,6.187-1.152,9.114-1.835c0.998-0.23,1.929-0.512,2.91-0.76
				c2.748-0.7,5.453-1.434,8.03-2.253c1.007-0.316,1.954-0.674,2.944-1.016c2.33-0.802,4.634-1.638,6.818-2.551
				c1.143-0.469,2.219-0.981,3.311-1.476c1.818-0.836,3.618-1.681,5.333-2.586c1.365-0.725,2.662-1.493,3.951-2.253
				c1.246-0.751,2.5-1.493,3.695-2.287c1.63-1.075,3.166-2.21,4.676-3.362c0.717-0.546,1.434-1.092,2.125-1.655
				c1.852-1.519,3.601-3.115,5.274-4.753c0.171-0.171,0.367-0.316,0.538-0.486C460.356,283.647,458.513,297.156,455.398,310.178z"/>
			<path d="M328.938,333.716c-42.411,21.478-88.115,21.513-128.7,0.068c-3.098-1.63-6.895-1.212-9.557,1.092
				c-2.662,2.295-3.635,5.99-2.466,9.31c12.612,35.61,41.139,56.883,76.314,56.883c35.166,0,63.701-21.274,76.314-56.883
				c1.161-3.294,0.205-6.963-2.415-9.259C335.799,332.615,332.044,332.137,328.938,333.716z"/>
		</g>
	</g>
</g>
<g>
</g>
<g>
</g>
<g>
</g>
<g>
</g>
<g>
</g>
<g>
</g>
<g>
</g>
<g>
</g>
<g>
</g>
<g>
</g>
<g>
</g>
<g>
</g>
<g>
</g>
<g>
</g>
<g>
</g>
</svg>
